<svg width="26.666672" height="26.666748" viewBox="0 0 26.6667 26.6667" fill="none" xmlns="http://www.w3.org/2000/svg" xmlns:xlink="http://www.w3.org/1999/xlink">
	<desc>
			Created with Pixso.
	</desc>
	<defs/>
	<path id="Vector" d="M9.38667 26.0532C10.6667 26.4399 11.96 26.6667 13.3333 26.6667C16.8696 26.6667 20.2609 25.262 22.7614 22.7615C25.2619 20.261 26.6667 16.8696 26.6667 13.3333C26.6667 11.5823 26.3218 9.84863 25.6517 8.23096C24.9817 6.61328 23.9995 5.14331 22.7614 3.90527C21.5233 2.66724 20.0535 1.68506 18.4358 1.01489C16.8181 0.344971 15.0843 0 13.3333 0C11.5824 0 9.84856 0.344971 8.2309 1.01489C6.61322 1.68506 5.14336 2.66724 3.90524 3.90527C1.40475 6.40576 0 9.79712 0 13.3333C0 19 3.56 23.8667 8.58667 25.7866C8.46667 24.7466 8.34666 23.0266 8.58667 21.8401L10.12 15.2534C10.12 15.2534 9.73334 14.48 9.73334 13.2534C9.73334 11.4133 10.88 10.04 12.1867 10.04C13.3333 10.04 13.8667 10.8799 13.8667 11.96C13.8667 13.1067 13.1067 14.7466 12.72 16.3201C12.4933 17.6267 13.4133 18.7734 14.7467 18.7734C17.12 18.7734 18.96 16.24 18.96 12.6667C18.96 9.46655 16.6667 7.28003 13.3733 7.28003C9.61334 7.28003 7.39999 10.0801 7.39999 13.0266C7.39999 14.1733 7.77333 15.3333 8.38667 16.0933C8.50667 16.1733 8.50667 16.28 8.46667 16.48L8.08 17.9333C8.08 18.1599 7.93333 18.24 7.70667 18.0801C6 17.3333 5.01334 14.9067 5.01334 12.9468C5.01334 8.7334 8 4.90674 13.76 4.90674C18.3467 4.90674 21.92 8.19995 21.92 12.5732C21.92 17.1599 19.08 20.8401 15.0133 20.8401C13.72 20.8401 12.4533 20.1467 12 19.3333L11.1067 22.4934C10.8 23.6399 9.96001 25.1733 9.38667 26.0933L9.38667 26.0532Z" fill="#FFFFFF" fill-opacity="1.000000" fill-rule="nonzero"/>
</svg>
