<svg width="24.000000" height="24.000000" viewBox="0 0 24 24" fill="none" xmlns="http://www.w3.org/2000/svg" xmlns:xlink="http://www.w3.org/1999/xlink">
	<desc>
			Created with Pixso.
	</desc>
	<defs/>
	<path id="Vector" d="M20 4C22.76 6.71997 23.8 10.52 23.1467 14.0667C23.6933 15.0266 24 16.1467 24 17.3333C24 19.1016 23.2976 20.7971 22.0474 22.0474C20.7971 23.2976 19.1014 24 17.3333 24C16.1467 24 15.0267 23.6934 14.0667 23.1467C10.52 23.8 6.72 22.76 4 20C1.24001 17.28 0.199997 13.48 0.853333 9.93335C0.306671 8.97339 0 7.85327 0 6.66675C0 4.89844 0.702377 3.20288 1.95262 1.95264C3.20287 0.702393 4.89856 0 6.66667 0C7.85333 0 8.97333 0.306641 9.93333 0.853271C13.48 0.199951 17.28 1.23999 20 4ZM12.0533 18.8799C15.88 18.8799 17.7867 17.04 17.7867 14.5601C17.7867 12.9734 17.04 11.28 14.1467 10.6267L11.4933 10.04C10.48 9.81323 9.33333 9.50659 9.33333 8.56006C9.33333 7.6001 10.1333 6.93335 11.6 6.93335C14.5733 6.93335 14.2933 8.97339 15.7733 8.97339C16.5467 8.97339 17.2133 8.52002 17.2133 7.7334C17.2133 5.90674 14.2933 4.53345 11.8133 4.53345C9.13333 4.53345 6.26666 5.67993 6.26666 8.71997C6.26666 10.1868 6.78667 11.7466 9.66667 12.4666L13.2533 13.3733C14.3333 13.6399 14.6 14.24 14.6 14.8C14.6 15.7068 13.6933 16.6001 12.0533 16.6001C8.84 16.6001 9.28 14.1333 7.56 14.1333C6.78667 14.1333 6.22667 14.6667 6.22667 15.4268C6.22667 16.9067 8 18.8799 12.0533 18.8799Z" fill="#FFFFFF" fill-opacity="1.000000" fill-rule="nonzero"/>
</svg>
