<svg width="26.666656" height="26.666748" viewBox="0 0 26.6667 26.6667" fill="none" xmlns="http://www.w3.org/2000/svg" xmlns:xlink="http://www.w3.org/1999/xlink">
	<desc>
			Created with Pixso.
	</desc>
	<defs/>
	<path id="Vector" d="M13.3333 0C5.97333 0 0 5.97339 0 13.3333C0 20.6934 5.97333 26.6667 13.3333 26.6667C20.6933 26.6667 26.6667 20.6934 26.6667 13.3333C26.6667 5.97339 20.6933 0 13.3333 0ZM19.52 9.06665C19.32 11.1733 18.4533 16.2935 18.0133 18.6533C17.8267 19.6533 17.4533 19.9866 17.1067 20.0266C16.3333 20.0933 15.7467 19.52 15 19.0266C13.8267 18.2534 13.16 17.7734 12.0267 17.0266C10.7067 16.1599 11.56 15.6799 12.32 14.9067C12.52 14.7068 15.9333 11.6001 16 11.3201C16.0093 11.2776 16.008 11.2336 15.9964 11.1917C15.9848 11.1499 15.9631 11.1116 15.9333 11.0801C15.8533 11.0134 15.7467 11.04 15.6534 11.0532C15.5333 11.0801 13.6667 12.3201 10.0267 14.7734C9.49335 15.1333 9.01334 15.3201 8.58667 15.3066C8.10666 15.2935 7.20001 15.04 6.51999 14.8132C5.67999 14.5466 5.02667 14.3999 5.07999 13.9333C5.10666 13.6934 5.44 13.4534 6.06668 13.2C9.95999 11.5066 12.5467 10.3867 13.84 9.85327C17.5467 8.30664 18.3067 8.04004 18.8133 8.04004C18.92 8.04004 19.1733 8.06665 19.3333 8.19995C19.4667 8.30664 19.5067 8.45337 19.52 8.56006C19.5067 8.63989 19.5333 8.87988 19.52 9.06665Z" fill="#FFFFFF" fill-opacity="1.000000" fill-rule="nonzero"/>
</svg>
