<svg width="26.720001" height="26.719971" viewBox="0 0 26.72 26.72" fill="none" xmlns="http://www.w3.org/2000/svg" xmlns:xlink="http://www.w3.org/1999/xlink">
	<desc>
			Created with Pixso.
	</desc>
	<defs/>
	<path id="Vector" d="M13.36 0C5.98138 0 0 5.98145 0 13.3601C0 20.7385 5.98138 26.72 13.36 26.72C20.7386 26.72 26.72 20.7385 26.72 13.3601C26.72 5.98145 20.7386 0 13.36 0ZM18.498 15.0732C18.498 15.0732 19.6796 16.2393 19.9704 16.7808C19.9788 16.7917 19.9829 16.803 19.9857 16.8086C20.104 17.0076 20.1319 17.1621 20.0734 17.2776C19.976 17.4695 19.642 17.5642 19.5279 17.5725L17.4404 17.5725C17.2956 17.5725 16.9922 17.5349 16.6248 17.2817C16.3423 17.084 16.064 16.7598 15.7926 16.4438C15.3877 15.9736 15.037 15.5671 14.6835 15.5671C14.6386 15.5671 14.5939 15.5742 14.5513 15.5881C14.2841 15.6743 13.9417 16.0557 13.9417 17.0715C13.9417 17.3889 13.6912 17.5713 13.5145 17.5713L12.5584 17.5713C12.2328 17.5713 10.5363 17.457 9.03329 15.8721C7.19351 13.9307 5.53745 10.0366 5.52353 10.0005C5.41916 9.74854 5.63486 9.61353 5.87006 9.61353L7.97842 9.61353C8.25955 9.61353 8.35138 9.78491 8.41541 9.93652C8.49057 10.1133 8.76611 10.8159 9.21841 11.6064C9.95181 12.8953 10.4013 13.4185 10.7617 13.4185C10.8293 13.4177 10.8957 13.4004 10.9552 13.3684C11.4256 13.1067 11.3379 11.4297 11.317 11.0818C11.317 11.0164 11.3156 10.3318 11.0749 10.0034C10.9023 9.76538 10.6087 9.6748 10.4305 9.64136C10.5026 9.54199 10.5976 9.46143 10.7075 9.40625C11.0303 9.24487 11.6121 9.22119 12.1896 9.22119L12.5111 9.22119C13.1373 9.22949 13.2988 9.26978 13.5256 9.3269C13.9849 9.43701 13.9946 9.7334 13.9543 10.7478C13.9417 11.0359 13.9292 11.3616 13.9292 11.7456C13.9292 11.8291 13.925 11.9182 13.925 12.0129C13.9111 12.5293 13.8944 13.115 14.259 13.3557C14.3066 13.3857 14.3615 13.4016 14.4177 13.4019C14.5443 13.4019 14.9256 13.4019 15.9582 11.6301C16.2767 11.0598 16.5534 10.4673 16.7863 9.85718C16.8072 9.82104 16.8684 9.70972 16.9408 9.6665C16.9942 9.6394 17.0534 9.62549 17.1133 9.62622L19.5919 9.62622C19.8619 9.62622 20.047 9.6665 20.0818 9.771C20.143 9.93652 20.0706 10.4417 18.9392 11.9739L18.434 12.6406C17.4084 13.9849 17.4084 14.053 18.498 15.0732Z" fill="#FFFFFF" fill-opacity="1.000000" fill-rule="nonzero"/>
</svg>
