<svg width="21.000000" height="18.000000" viewBox="0 0 21 18" fill="none" xmlns="http://www.w3.org/2000/svg" xmlns:xlink="http://www.w3.org/1999/xlink">
	<desc>
			Created with Pixso.
	</desc>
	<defs/>
	<path id="Vector" d="M0 1.5C0 1.10229 0.158081 0.720703 0.439331 0.439453C0.720703 0.157959 1.10217 0 1.5 0L19.5 0C19.8978 0 20.2793 0.157959 20.5607 0.439453C20.8419 0.720703 21 1.10229 21 1.5C21 1.89771 20.8419 2.2793 20.5607 2.56055C20.2793 2.84204 19.8978 3 19.5 3L1.5 3C1.10217 3 0.720703 2.84204 0.439331 2.56055C0.158081 2.2793 0 1.89771 0 1.5ZM0 9C0 8.60229 0.158081 8.2207 0.439331 7.93945C0.720703 7.65796 1.10217 7.5 1.5 7.5L19.5 7.5C19.8978 7.5 20.2793 7.65796 20.5607 7.93945C20.8419 8.2207 21 8.60229 21 9C21 9.39771 20.8419 9.7793 20.5607 10.0605C20.2793 10.342 19.8978 10.5 19.5 10.5L1.5 10.5C1.10217 10.5 0.720703 10.342 0.439331 10.0605C0.158081 9.7793 0 9.39771 0 9ZM9 16.5C9 16.1023 9.15808 15.7207 9.43933 15.4395C9.7207 15.158 10.1022 15 10.5 15L19.5 15C19.8978 15 20.2793 15.158 20.5607 15.4395C20.8419 15.7207 21 16.1023 21 16.5C21 16.8977 20.8419 17.2793 20.5607 17.5605C20.2793 17.842 19.8978 18 19.5 18L10.5 18C10.1022 18 9.7207 17.842 9.43933 17.5605C9.15808 17.2793 9 16.8977 9 16.5Z" fill="#FFFFFF" fill-opacity="1.000000" fill-rule="evenodd"/>
</svg>
