<svg width="5.874908" height="10.000000" viewBox="0 0 5.87491 10" fill="none" xmlns="http://www.w3.org/2000/svg" xmlns:xlink="http://www.w3.org/1999/xlink">
	<desc>
			Created with Pixso.
	</desc>
	<defs/>
	<path id="Vector" d="M5.71539 4.60986L1.26527 0.159668C1.16235 0.0566406 1.02495 0 0.878448 0C0.731949 0 0.594543 0.0566406 0.491623 0.159668L0.163895 0.487305C-0.0493469 0.700928 -0.0493469 1.04785 0.163895 1.26099L3.90079 4.99805L0.15976 8.73901C0.0568237 8.84204 0 8.97925 0 9.12573C0 9.27222 0.0568237 9.40967 0.15976 9.5127L0.487473 9.84033C0.590485 9.94336 0.727798 10 0.874298 10C1.0208 10 1.1582 9.94336 1.26112 9.84033L5.71539 5.38623C5.81857 5.28271 5.87524 5.14478 5.87491 4.99829C5.87524 4.85083 5.81857 4.71313 5.71539 4.60986Z" fill="#FDFDFD" fill-opacity="1.000000" fill-rule="nonzero"/>
</svg>
